<svg width="34" height="34" viewBox="0 0 34 34" fill="none" xmlns="http://www.w3.org/2000/svg">
<circle cx="17" cy="17" r="17" fill="black"/>
<path d="M25.9167 15.1667V12.6667C25.6867 12.6667 25.5 12.48 25.5 12.25C25.5 12.02 25.6867 11.8333 25.9167 11.8333C27.0658 11.8333 28 12.7683 28 13.9167V14.75C28 15.4392 27.4392 16 26.75 16H25.9167C25.6867 16 25.5 15.8133 25.5 15.5833C25.5 15.3533 25.6867 15.1667 25.9167 15.1667Z" fill="white"/>
<path d="M10.0833 11.8333C10.3133 11.8333 10.5 12.02 10.5 12.25C10.5 12.48 10.3133 12.6667 10.0833 12.6667V15.1667C10.3133 15.1667 10.5 15.3534 10.5 15.5834C10.5 15.8134 10.3133 16 10.0833 16H9.25C8.56082 16 8 15.4392 8 14.75V13.9167C8 12.7683 8.93418 11.8333 10.0833 11.8333Z" fill="white"/>
<path d="M20.9167 23.5C21.1467 23.5 21.3334 23.6867 21.3334 23.9167H23.8334C23.8334 23.6867 24.0201 23.5 24.2501 23.5C24.4801 23.5 24.6667 23.6867 24.6667 23.9167V24.75C24.6667 25.4392 24.1059 26 23.4167 26H21.75C21.0608 26 20.5 25.4392 20.5 24.75V23.9167C20.5 23.6867 20.6867 23.5 20.9167 23.5Z" fill="white"/>
<path d="M11.75 23.5C11.98 23.5 12.1667 23.6867 12.1667 23.9167H14.6667C14.6667 23.6867 14.8534 23.5 15.0834 23.5C15.3134 23.5 15.5 23.6867 15.5 23.9167V24.75C15.5 25.4392 14.9392 26 14.25 26H12.5833C11.8941 26 11.3333 25.4392 11.3333 24.75V23.9167C11.3333 23.6867 11.52 23.5 11.75 23.5Z" fill="white"/>
<path d="M11.75 6H24.25C25.3992 6 26.3333 6.935 26.3333 8.08332V22.25C26.3333 23.3983 25.3991 24.3333 24.25 24.3333H11.75C10.6008 24.3333 9.66667 23.3983 9.66667 22.25V8.08332C9.66667 6.935 10.6008 6 11.75 6ZM22.5833 7.66668H13.4166C12.7275 7.66668 12.1666 8.2275 12.1666 8.91668C12.1666 9.60586 12.7275 10.1667 13.4166 10.1667H22.5833C23.2725 10.1667 23.8333 9.60586 23.8333 8.91668C23.8333 8.2275 23.2725 7.66668 22.5833 7.66668ZM22.5833 21.8333C23.2725 21.8333 23.8333 21.2725 23.8333 20.5833C23.8333 19.8941 23.2725 19.3333 22.5833 19.3333C21.8941 19.3333 21.3333 19.8941 21.3333 20.5833C21.3333 21.2725 21.8942 21.8333 22.5833 21.8333ZM13.4167 21.8333C14.1059 21.8333 14.6667 21.2725 14.6667 20.5833C14.6667 19.8941 14.1059 19.3333 13.4167 19.3333C12.7275 19.3333 12.1667 19.8941 12.1667 20.5833C12.1667 21.2725 12.7275 21.8333 13.4167 21.8333ZM11.3333 16.4167C11.3333 17.1059 11.8941 17.6667 12.5833 17.6667H23.4167C24.1059 17.6667 24.6667 17.1059 24.6667 16.4167V12.25C24.6667 11.5608 24.1059 11 23.4167 11H12.5834C11.8942 11 11.3334 11.5608 11.3334 12.25V16.4167H11.3333Z" fill="white"/>
</svg>
