<svg width="34" height="34" viewBox="0 0 34 34" fill="none" xmlns="http://www.w3.org/2000/svg">
<circle cx="17" cy="17" r="17" fill="black"/>
<path d="M25.8066 23.4109H7.86203V24.1911H25.8066V23.4109Z" fill="white"/>
<path d="M25.5349 11.1202C24.2317 10.3607 22.7509 10.7641 21.7383 11.2363L18.7198 12.6439L13.5283 10.0328L10.4367 10.1656L14.7236 14.5116L11.9915 15.8095L9.14905 14.7277L7.24591 15.6151L8.96582 17.7508C8.78411 17.9676 8.61945 18.2728 8.76894 18.5934C8.96419 19.0121 9.54126 19.2231 10.4878 19.223C10.682 19.223 10.8916 19.2142 11.1167 19.1964C12.1558 19.1143 13.2823 18.8491 13.9867 18.5206L24.7767 13.4891C25.7087 13.0545 26.1729 12.5982 26.1959 12.0939C26.2078 11.8324 26.1028 11.4511 25.5349 11.1202ZM24.4469 12.782L13.6569 17.8135C13.0568 18.0934 12.0715 18.3279 11.1468 18.4109C10.2017 18.4957 9.69636 18.3892 9.52792 18.2987C9.5626 18.2512 9.62736 18.1767 9.74684 18.0715L10.0271 17.8248L8.47808 15.9013L9.17972 15.5741L12.0252 16.6571L16.0498 14.7453L12.2269 10.8696L13.359 10.8209L18.7068 13.5106L22.0679 11.9434C23.2955 11.371 24.3297 11.3209 25.142 11.7942L25.1421 11.7943C25.3468 11.9135 25.4183 12.0176 25.4164 12.0584C25.4163 12.0612 25.3929 12.341 24.4469 12.782Z" fill="white"/>
</svg>
