<svg width="34" height="34" viewBox="0 0 34 34" fill="none" xmlns="http://www.w3.org/2000/svg">
<circle cx="17" cy="17" r="17" fill="black"/>
<path d="M16.6843 5C21.5264 5 26.3685 5.60528 26.3685 9.8421V21.3422C26.3685 23.6785 24.468 25.579 22.1317 25.579L23.9475 27.3948V28.0001H21.248L18.8269 25.579H14.2632L11.8422 28H9.42109V27.3948L11.2369 25.579C8.90059 25.579 7.00002 23.6785 7.00002 21.3421V9.8421C7.00007 5.60528 11.3337 5 16.6843 5ZM22.1317 23.1579C23.1364 23.1579 23.9475 22.3469 23.9475 21.3422C23.9475 20.3374 23.1364 19.5264 22.1317 19.5264C21.1269 19.5264 20.3159 20.3374 20.3159 21.3422C20.3159 22.3469 21.127 23.1579 22.1317 23.1579ZM17.8948 14.6843H23.9475V9.8421H17.8948V14.6843H17.8948ZM11.2369 23.1579C12.2416 23.1579 13.0527 22.3469 13.0527 21.3422C13.0527 20.3374 12.2416 19.5264 11.2369 19.5264C10.2321 19.5264 9.42109 20.3374 9.42109 21.3422C9.42109 22.3469 10.2322 23.1579 11.2369 23.1579ZM9.42109 14.6843H15.4738V9.8421H9.42109V14.6843Z" fill="white"/>
</svg>
