<svg width="38" height="28" viewBox="0 0 38 28" fill="none" xmlns="http://www.w3.org/2000/svg">
<path d="M37.3651 14.4951L34.0232 11.5156L28.9097 4.50959C28.6681 4.18747 28.3057 4.02642 27.9433 4.02642H25.2859L24.3195 0.885812C24.1585 0.362377 23.7156 0 23.1519 0H20.1321C19.5684 0 19.0449 0.402641 18.9644 0.96634L18.3604 4.02642H1.40924C0.724754 4.02642 0.201321 4.54985 0.201321 5.23434L0 22.2661C0 22.9506 0.523434 23.474 1.20792 23.474H4.34853C4.99275 26.0107 7.52939 27.581 10.1063 26.977C11.8377 26.5743 13.1664 25.2054 13.6093 23.474H22.1855C22.8298 26.0107 25.3664 27.581 27.9433 26.977C29.6747 26.5743 31.0034 25.2054 31.4463 23.474H36.5196C37.2041 23.474 37.7275 22.9506 37.7275 22.2661V15.3809C37.7678 15.0185 37.5664 14.6964 37.3651 14.4951ZM8.9789 24.6819C7.69045 24.6819 6.64358 23.6351 6.64358 22.3466C6.64358 21.0582 7.69045 20.0113 8.9789 20.0113C10.2674 20.0113 11.3142 21.0582 11.3142 22.3466C11.3142 23.6351 10.2674 24.6819 8.9789 24.6819ZM14.8977 13.6898H13.6093V14.9783C13.6093 15.6628 13.0858 16.1862 12.4014 16.1862C11.7169 16.1862 11.1934 15.6628 11.1934 14.9783V13.6898H9.90498C9.22049 13.6898 8.69705 13.1664 8.69705 12.4819C8.69705 11.7974 9.22049 11.274 9.90498 11.274H11.1934V9.98551C11.1934 9.30102 11.7169 8.77759 12.4014 8.77759C13.0858 8.77759 13.6093 9.30102 13.6093 9.98551V11.274H14.8977C15.5822 11.274 16.1057 11.7974 16.1057 12.4819C16.1057 13.1664 15.542 13.6898 14.8977 13.6898ZM26.7757 24.6819C25.4872 24.6819 24.4403 23.6351 24.4403 22.3466C24.4403 21.0582 25.4872 20.0113 26.7757 20.0113C28.0641 20.0113 29.111 21.0582 29.111 22.3466C29.111 23.6351 28.1044 24.6819 26.7757 24.6819ZM22.9506 11.1129V6.44227H27.2991L30.7215 11.1129H22.9506Z" fill="white"/>
</svg>
