<svg width="35" height="35" viewBox="0 0 35 35" fill="none" xmlns="http://www.w3.org/2000/svg">
<path d="M31.3542 16.0417V11.6667C30.9517 11.6667 30.625 11.34 30.625 10.9375C30.625 10.535 30.9517 10.2083 31.3542 10.2083C33.3652 10.2083 35 11.8446 35 13.8542V15.3125C35 16.5186 34.0186 17.5 32.8125 17.5H31.3542C30.9517 17.5 30.625 17.1733 30.625 16.7708C30.625 16.3683 30.9517 16.0417 31.3542 16.0417Z" fill="white"/>
<path d="M3.64581 10.2083C4.04831 10.2083 4.375 10.535 4.375 10.9375C4.375 11.34 4.04831 11.6667 3.64581 11.6667V16.0417C4.04831 16.0417 4.375 16.3684 4.375 16.7709C4.375 17.1734 4.04831 17.5 3.64581 17.5H2.1875C0.981436 17.5 0 16.5186 0 15.3125V13.8542C0 11.8446 1.63482 10.2083 3.64581 10.2083Z" fill="white"/>
<path d="M22.6042 30.625C23.0067 30.625 23.3334 30.9517 23.3334 31.3542H27.7084C27.7084 30.9517 28.0351 30.625 28.4376 30.625C28.8401 30.625 29.1667 30.9517 29.1667 31.3542V32.8125C29.1667 34.0186 28.1853 35 26.9792 35H24.0625C22.8564 35 21.875 34.0186 21.875 32.8125V31.3542C21.875 30.9517 22.2017 30.625 22.6042 30.625Z" fill="white"/>
<path d="M6.5625 30.625C6.965 30.625 7.29169 30.9517 7.29169 31.3542H11.6667C11.6667 30.9517 11.9934 30.625 12.3959 30.625C12.7984 30.625 13.125 30.9517 13.125 31.3542V32.8125C13.125 34.0186 12.1436 35 10.9375 35H8.02081C6.81475 35 5.83331 34.0186 5.83331 32.8125V31.3542C5.83331 30.9517 6.16 30.625 6.5625 30.625Z" fill="white"/>
<path d="M6.56257 0H28.4376C30.4486 0 32.0834 1.63625 32.0834 3.64581V28.4375C32.0834 30.4471 30.4486 32.0833 28.4376 32.0833H6.56257C4.5515 32.0833 2.91676 30.4471 2.91676 28.4375V3.64581C2.91676 1.63625 4.5515 0 6.56257 0ZM25.5209 2.91669H9.47919C8.27312 2.91669 7.29169 3.89813 7.29169 5.10419C7.29169 6.31025 8.27312 7.29169 9.47919 7.29169H25.5209C26.7269 7.29169 27.7084 6.31025 27.7084 5.10419C27.7084 3.89813 26.7269 2.91669 25.5209 2.91669ZM25.5209 27.7083C26.7269 27.7083 27.7084 26.7269 27.7084 25.5208C27.7084 24.3147 26.7269 23.3333 25.5209 23.3333C24.3148 23.3333 23.3334 24.3147 23.3334 25.5208C23.3334 26.7269 24.3149 27.7083 25.5209 27.7083ZM9.47926 27.7083C10.6853 27.7083 11.6668 26.7269 11.6668 25.5208C11.6668 24.3147 10.6853 23.3333 9.47926 23.3333C8.27319 23.3333 7.29176 24.3147 7.29176 25.5208C7.29176 26.7269 8.27319 27.7083 9.47926 27.7083ZM5.83338 18.2292C5.83338 19.4353 6.81482 20.4167 8.02088 20.4167H26.9793C28.1853 20.4167 29.1668 19.4353 29.1668 18.2292V10.9375C29.1668 9.73144 28.1853 8.75 26.9793 8.75H8.02095C6.81488 8.75 5.83345 9.73144 5.83345 10.9375V18.2292H5.83338Z" fill="white"/>
</svg>
