<svg width="57" height="21" viewBox="0 0 57 21" fill="none" xmlns="http://www.w3.org/2000/svg">
<path d="M47.0505 12.0392C49.4257 12.0392 51.3517 13.9646 51.3517 16.3404C51.3517 16.5236 51.3367 16.7038 51.3136 16.8806C51.047 19.0007 49.2425 20.6404 47.051 20.6404C44.8002 20.6404 42.9549 18.9103 42.7677 16.7067C42.7579 16.5863 42.7498 16.4637 42.7498 16.3398C42.7493 13.9646 44.6747 12.0392 47.0505 12.0392ZM49.2034 14.7197L48.3268 15.5969C48.3947 15.7138 48.4483 15.8399 48.4829 15.9747H49.7188C49.6555 15.507 49.4764 15.0797 49.2034 14.7197ZM49.7246 16.7194H48.4788C48.4437 16.8519 48.3918 16.9774 48.3227 17.0926L49.2016 17.9709C49.4741 17.6138 49.6572 17.1865 49.7246 16.7194ZM47.4225 19.0122C47.8885 18.9472 48.3118 18.7646 48.67 18.4945L47.7957 17.6196C47.6806 17.687 47.5544 17.7365 47.4225 17.7711V19.0122ZM47.4225 14.9097C47.5579 14.9455 47.6846 14.9984 47.8027 15.0681L48.6787 14.1921C48.3187 13.9185 47.8914 13.7377 47.4225 13.6726V14.9097ZM46.6778 13.6715C46.209 13.7365 45.7811 13.9185 45.4217 14.1915L46.2971 15.0676C46.4146 14.9979 46.5425 14.9449 46.6772 14.9092L46.6778 13.6715ZM46.6778 19.0111V17.7716C46.5454 17.7365 46.4204 17.6876 46.3052 17.6196L45.4303 18.4945C45.7886 18.7646 46.2125 18.946 46.6778 19.0111ZM44.897 17.975L45.7788 17.092C45.7097 16.9763 45.6538 16.8524 45.6187 16.72H44.3827C44.4483 17.1853 44.624 17.6161 44.897 17.975ZM45.6169 15.9747C45.6521 15.8399 45.705 15.7138 45.773 15.5969L44.8953 14.7197C44.624 15.0797 44.4449 15.507 44.3804 15.9753H45.6169V15.9747Z" fill="white"/>
<path d="M11.3364 12.0392C13.7116 12.0392 15.6376 13.9646 15.6376 16.3404C15.6376 16.5236 15.6226 16.7038 15.5996 16.8806C15.3329 19.0007 13.5285 20.6404 11.3376 20.6404C9.08675 20.6404 7.24141 18.9103 7.05365 16.7067C7.04386 16.5863 7.03579 16.4637 7.03579 16.3398C7.03464 13.9646 8.96062 12.0392 11.3364 12.0392ZM13.4893 14.7197L12.6133 15.5969C12.6813 15.7138 12.7348 15.8399 12.7694 15.9747H14.0054C13.9414 15.507 13.7623 15.0797 13.4893 14.7197ZM14.01 16.7194H12.7642C12.7291 16.8519 12.6772 16.9774 12.6081 17.0926L13.4864 17.9709C13.76 17.6138 13.9437 17.1865 14.01 16.7194ZM11.7085 19.0122C12.1744 18.9472 12.5977 18.7646 12.956 18.4945L12.0817 17.6196C11.9665 17.687 11.8404 17.7365 11.7085 17.7711V19.0122ZM11.7085 14.9097C11.8438 14.9455 11.9705 14.9984 12.0886 15.0681L12.9646 14.1921C12.6047 13.9185 12.1779 13.7377 11.7085 13.6726V14.9097ZM10.9632 13.6715C10.4944 13.7365 10.0664 13.9185 9.70705 14.1915L10.5831 15.0676C10.7006 14.9979 10.8284 14.9437 10.9632 14.9092V13.6715ZM10.9632 19.0111V17.7716C10.8307 17.7365 10.7057 17.6876 10.5906 17.6196L9.71569 18.4945C10.0739 18.7646 10.4984 18.946 10.9632 19.0111ZM9.18293 17.975L10.0647 17.0932C9.9956 16.9768 9.93916 16.8536 9.9046 16.7205H8.66861C8.73427 17.1853 8.90936 17.6161 9.18293 17.975ZM9.90287 15.9747C9.938 15.8399 9.99042 15.7138 10.059 15.5969L9.18178 14.7197C8.90993 15.0797 8.73139 15.507 8.66631 15.9753H9.90287V15.9747Z" fill="white"/>
<path d="M1.0085 9.8126V6.6299C1.0085 6.11788 1.38056 5.68419 1.88624 5.60529C3.09977 5.41523 5.25094 5.05641 6.21738 4.75864C7.60312 4.33129 12.9571 2.06435 14.8111 1.63872C16.6657 1.2131 25.0273 -1.0596 33.0359 1.71648C34.3911 2.18588 40.4875 5.10018 44.0722 6.6155C45.128 6.63854 55.5774 8.81678 56.1338 10.3096C56.6901 11.8031 56.8647 12.5276 56.9672 12.9066C57.0697 13.2856 56.9672 15.0992 56.1908 16.3623C55.3994 16.8098 53.8761 17.1105 52.1148 17.312C52.135 17.2043 52.1568 17.0984 52.1707 16.9895C52.2012 16.7568 52.2156 16.5443 52.2156 16.3416C52.2156 13.4935 49.8991 11.1759 47.0505 11.1759C44.2018 11.1759 41.8854 13.4929 41.8854 16.3416C41.8854 16.4879 41.8951 16.633 41.9061 16.7758C41.9332 17.0955 41.9908 17.4059 42.0743 17.7048C42.0702 17.7048 42.0604 17.7048 42.0604 17.7048L16.4215 17.1888C16.433 17.1226 16.448 17.0569 16.4566 16.9895C16.4871 16.758 16.5015 16.5449 16.5015 16.3416C16.5015 13.4935 14.1851 11.1764 11.3364 11.1764C8.48778 11.1764 6.17073 13.4929 6.17073 16.3416C6.17073 16.3525 6.17188 16.3617 6.17246 16.3721L6.06303 16.3629L1.67948 15.5375C1.67948 15.5375 0.000583649 14.6437 0.000583649 12.1844C7.62939e-06 10.5441 1.0085 9.8126 1.0085 9.8126ZM26.4419 6.7952L36.017 7.08836C35.8408 5.65367 36.6903 5.33171 36.6903 5.33171C32.8838 1.87659 25.2122 1.75967 25.2122 1.75967L26.4419 6.7952ZM15.6958 6.3569L24.4214 6.65006L23.6306 1.76025C19.121 1.7015 16.5447 2.69674 16.5447 2.69674L15.2563 4.77592L15.6958 6.3569ZM10.7766 6.32695H13.2077L15.6382 2.98933C13.8147 3.71502 12.3553 4.43035 11.4862 4.88247C10.9586 5.15662 10.6706 5.74236 10.7766 6.32695Z" fill="white"/>
</svg>
