<svg width="32" height="32" viewBox="0 0 32 32" fill="none" xmlns="http://www.w3.org/2000/svg">
<g clip-path="url(#clip0)">
<path d="M27.3285 22.5664C29.3979 22.5664 31.0807 24.2492 31.0807 26.3186C31.0807 28.4064 29.3921 30.068 27.323 30.068C24.9956 30.068 23.5763 28.3588 23.5763 26.3186C23.5763 24.2491 25.2591 22.5664 27.3285 22.5664ZM27.3285 27.2566C27.8466 27.2566 28.2666 26.8366 28.2666 26.3186C28.2666 25.8004 27.8466 25.3805 27.3285 25.3805C26.8104 25.3805 26.3904 25.8004 26.3904 26.3186C26.3904 26.8366 26.8105 27.2566 27.3285 27.2566Z" fill="white"/>
<path d="M11.6881 28.1946C11.0315 29.3202 9.83082 30.0707 8.4425 30.0707C7.05419 30.0707 5.85351 29.3202 5.19695 28.1946H11.6881Z" fill="white"/>
<path d="M5.62832 13.1859H12.1946C13.7082 13.1859 15.0088 14.4664 15.0088 16V17.8761C15.0088 18.281 14.7729 18.5013 14.5076 18.8142H5.62826C4.0327 18.8142 2.81413 17.4644 2.81413 16.0001C2.81413 14.5141 4.03763 13.1859 5.62832 13.1859Z" fill="white"/>
<path d="M17.9479 9.43363H20.7621V8.49563C20.7621 6.93838 22.019 5.6815 23.5762 5.6815H25.4523C25.9777 5.6815 26.3904 6.09419 26.3904 6.61957V10.3718C26.3904 10.897 25.9778 11.3098 25.4524 11.3098H24.8332L25.9777 15.0808C25.8088 15.062 25.6213 15.062 25.4523 15.062C22.8071 15.062 20.4244 16.3002 18.8859 18.2139V14.124C18.8859 13.0734 19.2611 12.0978 19.8428 11.3099H17.9479C17.4225 11.3099 17.0098 10.8971 17.0098 10.3718C17.0099 9.84632 17.4226 9.43363 17.9479 9.43363Z" fill="white"/>
<path d="M0.150127 22.829C0.544065 21.178 1.20075 19.921 2.02625 18.9642C2.88919 20.0149 4.16488 20.6903 5.62831 20.6903C8.68069 20.6903 10.5374 20.6903 13.5641 20.6903C13.2828 21.9848 13.6017 23.3731 14.5022 24.4424H18.8861V23.5044C18.8861 19.8835 21.8316 16.938 25.4524 16.938C29.3261 16.9381 32 20.303 32 23.1667C30.987 21.6845 29.2609 20.6903 27.3285 20.6903C24.2329 20.6903 21.7002 23.2229 21.7002 26.3186H2.87044C1.04775 26.3186 -0.319561 24.5903 0.150127 22.829Z" fill="white"/>
<path d="M2.81411 1.92924H10.3185C11.8703 1.92924 13.1326 3.19162 13.1326 4.74337V5.68143H-1.52588e-05V4.74337C-1.52588e-05 3.19156 1.26236 1.92924 2.81411 1.92924Z" fill="white"/>
<path d="M13.1327 7.55756V11.4047C12.8294 11.3428 12.5158 11.3097 12.1946 11.3097H5.62823C3.55461 11.3097 1.81123 12.6716 1.19367 14.5409C0.473981 14.0306 -8.01086e-05 13.1952 -8.01086e-05 12.2478V7.55756H13.1327Z" fill="white"/>
</g>
<defs>
<clipPath id="clip0">
<rect width="32" height="32" fill="white" transform="matrix(-1 0 0 1 32 0)"/>
</clipPath>
</defs>
</svg>
