<svg width="35" height="35" viewBox="0 0 35 35" fill="none" xmlns="http://www.w3.org/2000/svg">
<path d="M28.6108 13.7871C26.2443 11.4205 23.2554 9.90296 20.0135 9.38473C20.0903 9.13788 20.1318 8.87559 20.1318 8.60379C20.1318 7.15259 18.9511 5.97195 17.4999 5.97195C16.0487 5.97195 14.8681 7.15259 14.8681 8.60379C14.8681 8.87559 14.9095 9.13788 14.9864 9.38473C11.7445 9.90296 8.75567 11.4205 6.38913 13.7871C4.02636 16.1499 2.50981 19.133 1.98932 22.369H33.0107C32.4902 19.133 30.9736 16.1499 28.6108 13.7871Z" fill="white"/>
<path d="M0 24.4198V26.4706H2.38492L3.51196 29.028H31.488L32.6151 26.4706H35V24.4198H0Z" fill="white"/>
</svg>
