<svg width="34" height="26" viewBox="0 0 34 26" fill="none" xmlns="http://www.w3.org/2000/svg">
<path d="M33.3001 24.002H1.10538V25.4018H33.3001V24.002Z" fill="white"/>
<path d="M32.8127 1.951C30.4745 0.588254 27.8177 1.31214 26.001 2.15929L20.5855 4.68461L11.2714 0L5.72458 0.238311L13.4158 8.03559L8.51418 10.364L3.41446 8.42319L0 10.0153L3.08573 13.8471C2.75972 14.236 2.4643 14.7836 2.73249 15.3588C3.08279 16.1099 4.11813 16.4885 5.8164 16.4884C6.16466 16.4884 6.54085 16.4725 6.94462 16.4406C8.80883 16.2933 10.83 15.8175 12.0937 15.2282L31.4523 6.20112C33.1243 5.42138 33.9572 4.60265 33.9985 3.69798C34.0199 3.22878 33.8316 2.54464 32.8127 1.951ZM30.8606 4.93244L11.5021 13.9596C10.4254 14.4617 8.65773 14.8824 6.99872 15.0313C5.30303 15.1835 4.3964 14.9924 4.09419 14.8301C4.15641 14.7449 4.27259 14.6111 4.48697 14.4224L4.98977 13.9799L2.21066 10.5289L3.46947 9.9418L8.57465 11.8849L15.7953 8.45482L8.93642 1.50132L10.9676 1.41405L20.5622 6.23969L26.5924 3.42783C28.7948 2.40089 30.6503 2.31102 32.1077 3.16026L32.1078 3.16033C32.475 3.37429 32.6034 3.56095 32.6 3.63415C32.5999 3.63919 32.5578 4.14115 30.8606 4.93244Z" fill="white"/>
</svg>
