<svg width="35" height="35" viewBox="0 0 35 35" fill="none" xmlns="http://www.w3.org/2000/svg">
<g clip-path="url(#clip0)">
<path d="M34.4125 15.9326L29.1081 10.6282V4.50071C29.1081 3.39277 28.2103 2.49487 27.1007 2.49487C25.9937 2.49487 25.0959 3.39277 25.0959 4.50071V6.61605L21.1463 2.66634C19.1936 0.714696 15.7985 0.718158 13.8502 2.66987L0.58721 15.9326C-0.195737 16.7171 -0.195737 17.9865 0.58721 18.7698C1.37051 19.5541 2.64236 19.5541 3.42537 18.7698L16.6871 5.5067C17.1192 5.07693 17.8806 5.07693 18.3104 5.50542L31.5744 18.7698C31.9677 19.162 32.4805 19.3571 32.9931 19.3571C33.5068 19.3571 34.0205 19.1618 34.4126 18.7698C35.1958 17.9866 35.1958 16.7172 34.4125 15.9326Z" fill="white"/>
<path d="M18.1967 9.31424C17.8114 8.92913 17.1875 8.92913 16.8033 9.31424L5.13712 20.977C4.95293 21.1611 4.84851 21.4125 4.84851 21.6748V30.1811C4.84851 32.1772 6.46697 33.7956 8.46298 33.7956H14.2389V24.8506H20.7599V33.7956H26.5359C28.5318 33.7956 30.1503 32.1772 30.1503 30.1812V21.6748C30.1503 21.4125 30.0468 21.1611 29.8617 20.977L18.1967 9.31424Z" fill="white"/>
</g>
<defs>
<clipPath id="clip0">
<rect width="35" height="35" fill="white"/>
</clipPath>
</defs>
</svg>
