<svg width="35" height="35" viewBox="0 0 35 35" fill="none" xmlns="http://www.w3.org/2000/svg">
<g clip-path="url(#clip0)">
<path d="M34.6933 17.0508L19.8139 2.42669C18.538 1.1725 16.462 1.17257 15.1861 2.42663L0.306665 17.0508C-0.0972708 17.4478 -0.102876 18.0971 0.294087 18.5009C0.691049 18.9047 1.34026 18.9105 1.74413 18.5135L2.90206 17.3754V29.051C2.90206 31.5118 4.90417 33.5139 7.36504 33.5139H27.635C30.0958 33.5139 32.0979 31.5118 32.0979 29.051V17.3754L33.2559 18.5135C33.4556 18.7097 33.7151 18.8076 33.9745 18.8076C34.2399 18.8076 34.5052 18.7052 34.7059 18.501C35.1029 18.0971 35.0973 17.4478 34.6933 17.0508ZM30.0471 29.051C30.0471 30.381 28.965 31.4632 27.6349 31.4632H7.36504C6.03498 31.4632 4.95285 30.381 4.95285 29.051V15.3598L16.6236 3.88924C16.7444 3.7705 16.8842 3.68143 17.0335 3.62203C17.4438 3.45878 17.9257 3.51997 18.2824 3.80571C18.3148 3.83168 18.3462 3.85951 18.3764 3.88924L30.0472 15.3597V29.051H30.0471Z" fill="white"/>
<path d="M14.4189 13.4654V16.7652H11.1189C10.5526 16.7652 10.0935 17.2243 10.0935 17.7906V21.883C10.0935 22.4493 10.5526 22.9084 11.1189 22.9084H14.4189V26.2081C14.4189 26.7744 14.878 27.2335 15.4443 27.2335H19.5367C20.103 27.2335 20.5621 26.7744 20.5621 26.2081V22.9084H23.8615C24.4278 22.9084 24.8869 22.4493 24.8869 21.883V17.7906C24.8869 17.2243 24.4278 16.7652 23.8615 16.7652H20.5621V13.4654C20.5621 12.8991 20.103 12.44 19.5367 12.44H15.4443C14.878 12.44 14.4189 12.8991 14.4189 13.4654ZM16.4697 17.7906V14.4908H18.5113V17.7906C18.5113 18.3569 18.9704 18.816 19.5367 18.816H22.8361V20.8576H19.5367C18.9704 20.8576 18.5113 21.3167 18.5113 21.883V25.1827H16.4697V21.883C16.4697 21.3167 16.0106 20.8576 15.4443 20.8576H12.1443V18.816H15.4443C16.0106 18.816 16.4697 18.3569 16.4697 17.7906Z" fill="white"/>
</g>
<defs>
<clipPath id="clip0">
<rect width="35" height="35" fill="white"/>
</clipPath>
</defs>
</svg>
