<svg width="180" height="47" viewBox="0 0 180 47" fill="none" xmlns="http://www.w3.org/2000/svg">
<path d="M38.9688 19.17C38.9688 13.5004 36.8816 3.57349 22.4532 3.57349C8.02466 3.57349 5.66528 13.6387 5.66528 19.17C5.66528 24.7013 22.4532 18.8209 22.4532 35.6733C22.4532 52.5256 38.9688 24.8396 38.9688 19.17Z" stroke="black" stroke-width="6"/>
<path d="M55.944 39.985C54.072 39.985 52.44 39.685 51.048 39.085C49.68 38.461 48.624 37.657 47.88 36.673C47.16 35.689 46.776 34.633 46.728 33.505C46.728 33.313 46.8 33.145 46.944 33.001C47.088 32.857 47.268 32.785 47.484 32.785H48.204C48.636 32.785 48.9 33.025 48.996 33.505C49.164 34.657 49.824 35.665 50.976 36.529C52.128 37.393 53.784 37.825 55.944 37.825C58.224 37.825 59.916 37.417 61.02 36.601C62.148 35.761 62.712 34.597 62.712 33.109C62.712 32.197 62.436 31.453 61.884 30.877C61.356 30.277 60.576 29.761 59.544 29.329C58.512 28.873 56.952 28.309 54.864 27.637C53.016 27.037 51.564 26.449 50.508 25.873C49.476 25.297 48.708 24.589 48.204 23.749C47.7 22.909 47.448 21.841 47.448 20.545C47.448 19.321 47.772 18.217 48.42 17.233C49.092 16.249 50.052 15.481 51.3 14.929C52.548 14.353 54.036 14.065 55.764 14.065C57.54 14.065 59.064 14.389 60.336 15.037C61.608 15.661 62.568 16.465 63.216 17.449C63.864 18.409 64.212 19.381 64.26 20.365C64.26 20.557 64.188 20.725 64.044 20.869C63.924 21.013 63.744 21.085 63.504 21.085H62.784C62.616 21.085 62.448 21.037 62.28 20.941C62.112 20.821 62.016 20.629 61.992 20.365C61.848 19.165 61.2 18.181 60.048 17.413C58.92 16.621 57.492 16.225 55.764 16.225C53.916 16.225 52.44 16.585 51.336 17.305C50.256 18.025 49.716 19.105 49.716 20.545C49.716 21.481 49.956 22.261 50.436 22.885C50.94 23.485 51.684 24.013 52.668 24.469C53.652 24.901 55.104 25.429 57.024 26.053C58.992 26.677 60.528 27.277 61.632 27.853C62.736 28.429 63.564 29.125 64.116 29.941C64.692 30.757 64.98 31.813 64.98 33.109C64.98 35.269 64.176 36.961 62.568 38.185C60.96 39.385 58.752 39.985 55.944 39.985ZM70.5409 46.465C70.3009 46.465 70.1089 46.393 69.9649 46.249C69.8209 46.105 69.7489 45.913 69.7489 45.673V21.697C69.7489 21.457 69.8209 21.265 69.9649 21.121C70.1089 20.977 70.3009 20.905 70.5409 20.905H71.1529C71.3929 20.905 71.5849 20.977 71.7289 21.121C71.8729 21.265 71.9449 21.457 71.9449 21.697V23.389C73.3369 21.493 75.3529 20.545 77.9929 20.545C80.5849 20.545 82.4929 21.373 83.7169 23.029C84.9649 24.661 85.6249 26.677 85.6969 29.077C85.7209 29.317 85.7329 29.713 85.7329 30.265C85.7329 30.817 85.7209 31.213 85.6969 31.453C85.6249 33.853 84.9649 35.881 83.7169 37.537C82.4929 39.169 80.5849 39.985 77.9929 39.985C75.3769 39.985 73.3609 39.037 71.9449 37.141V45.673C71.9449 45.913 71.8729 46.105 71.7289 46.249C71.5849 46.393 71.3929 46.465 71.1529 46.465H70.5409ZM77.7769 37.897C79.7209 37.897 81.1369 37.285 82.0249 36.061C82.9369 34.813 83.4289 33.217 83.5009 31.273C83.5249 31.033 83.5369 30.697 83.5369 30.265C83.5369 28.033 83.1049 26.209 82.2409 24.793C81.3769 23.353 79.8889 22.633 77.7769 22.633C75.8809 22.633 74.4529 23.269 73.4929 24.541C72.5329 25.789 72.0169 27.265 71.9449 28.969L71.9089 30.373L71.9449 31.777C71.9689 32.809 72.1969 33.793 72.6289 34.729C73.0609 35.641 73.7089 36.397 74.5729 36.997C75.4369 37.597 76.5049 37.897 77.7769 37.897ZM97.5788 39.985C95.2988 39.985 93.4628 39.241 92.0708 37.753C90.6788 36.241 89.8868 34.225 89.6948 31.705L89.6588 30.265L89.6948 28.825C89.8868 26.329 90.6668 24.325 92.0348 22.813C93.4268 21.301 95.2748 20.545 97.5788 20.545C100.075 20.545 102.019 21.373 103.411 23.029C104.827 24.685 105.535 26.953 105.535 29.833V30.373C105.535 30.613 105.451 30.805 105.283 30.949C105.139 31.093 104.947 31.165 104.707 31.165H91.8908V31.525C91.9388 32.653 92.1908 33.709 92.6468 34.693C93.1268 35.653 93.7868 36.433 94.6268 37.033C95.4668 37.609 96.4508 37.897 97.5788 37.897C98.8988 37.897 99.9668 37.645 100.783 37.141C101.623 36.613 102.223 36.085 102.583 35.557C102.799 35.269 102.955 35.089 103.051 35.017C103.171 34.945 103.375 34.909 103.663 34.909H104.239C104.455 34.909 104.635 34.969 104.779 35.089C104.923 35.209 104.995 35.365 104.995 35.557C104.995 36.061 104.671 36.673 104.023 37.393C103.399 38.089 102.523 38.701 101.395 39.229C100.267 39.733 98.9948 39.985 97.5788 39.985ZM103.339 29.149V29.005C103.339 27.157 102.811 25.633 101.755 24.433C100.723 23.233 99.3308 22.633 97.5788 22.633C95.8268 22.633 94.4348 23.233 93.4028 24.433C92.3948 25.633 91.8908 27.157 91.8908 29.005V29.149H103.339ZM117.375 39.985C114.879 39.985 112.947 39.265 111.579 37.825C110.211 36.361 109.491 34.321 109.419 31.705L109.383 30.265L109.419 28.825C109.491 26.209 110.211 24.181 111.579 22.741C112.947 21.277 114.879 20.545 117.375 20.545C118.959 20.545 120.303 20.833 121.407 21.409C122.535 21.961 123.375 22.681 123.927 23.569C124.479 24.433 124.779 25.333 124.827 26.269C124.851 26.485 124.779 26.677 124.611 26.845C124.443 26.989 124.251 27.061 124.035 27.061H123.531C123.291 27.061 123.111 27.013 122.991 26.917C122.895 26.797 122.787 26.593 122.667 26.305C122.187 24.985 121.515 24.049 120.651 23.497C119.787 22.921 118.695 22.633 117.375 22.633C115.647 22.633 114.267 23.161 113.235 24.217C112.227 25.249 111.687 26.845 111.615 29.005L111.579 30.265L111.615 31.525C111.687 33.685 112.227 35.293 113.235 36.349C114.267 37.381 115.647 37.897 117.375 37.897C118.695 37.897 119.787 37.621 120.651 37.069C121.515 36.493 122.187 35.545 122.667 34.225C122.787 33.937 122.895 33.745 122.991 33.649C123.111 33.529 123.291 33.469 123.531 33.469H124.035C124.251 33.469 124.443 33.553 124.611 33.721C124.779 33.865 124.851 34.045 124.827 34.261C124.779 35.197 124.479 36.109 123.927 36.997C123.375 37.861 122.535 38.581 121.407 39.157C120.303 39.709 118.959 39.985 117.375 39.985ZM135.524 39.985C133.964 39.985 132.644 39.721 131.564 39.193C130.508 38.665 129.704 38.065 129.152 37.393C128.624 36.721 128.36 36.181 128.36 35.773C128.36 35.557 128.444 35.389 128.612 35.269C128.78 35.125 128.96 35.053 129.152 35.053H129.692C129.86 35.053 129.992 35.089 130.088 35.161C130.208 35.209 130.34 35.329 130.484 35.521C131.012 36.265 131.648 36.853 132.392 37.285C133.16 37.693 134.204 37.897 135.524 37.897C137.012 37.897 138.212 37.621 139.124 37.069C140.036 36.493 140.492 35.677 140.492 34.621C140.492 33.973 140.3 33.445 139.916 33.037C139.556 32.629 138.956 32.281 138.116 31.993C137.3 31.681 136.076 31.333 134.444 30.949C132.308 30.469 130.844 29.809 130.052 28.969C129.284 28.129 128.9 27.061 128.9 25.765C128.9 24.877 129.14 24.037 129.62 23.245C130.124 22.453 130.856 21.805 131.816 21.301C132.8 20.797 133.976 20.545 135.344 20.545C136.784 20.545 137.996 20.797 138.98 21.301C139.988 21.781 140.732 22.345 141.212 22.993C141.716 23.641 141.968 24.169 141.968 24.577C141.968 24.793 141.884 24.973 141.716 25.117C141.572 25.237 141.392 25.297 141.176 25.297H140.636C140.3 25.297 140.036 25.141 139.844 24.829C139.364 24.109 138.812 23.569 138.188 23.209C137.588 22.825 136.64 22.633 135.344 22.633C133.952 22.633 132.896 22.921 132.176 23.497C131.456 24.073 131.096 24.829 131.096 25.765C131.096 26.341 131.24 26.821 131.528 27.205C131.816 27.589 132.356 27.949 133.148 28.285C133.94 28.597 135.092 28.921 136.604 29.257C138.836 29.761 140.408 30.433 141.32 31.273C142.232 32.113 142.688 33.229 142.688 34.621C142.688 35.605 142.412 36.505 141.86 37.321C141.308 38.137 140.492 38.785 139.412 39.265C138.332 39.745 137.036 39.985 135.524 39.985Z" fill="black"/>
</svg>
