<svg width="26" height="35" viewBox="0 0 26 35" fill="none" xmlns="http://www.w3.org/2000/svg">
<path d="M20.2684 26.594C21.5373 26.6007 22.8494 26.2413 23.8196 25.3927C24.7227 24.6059 25.1482 23.3862 25.1515 22.2083C25.1538 21.0271 25.1631 19.844 25.1422 18.6612C25.0956 16.8342 25.1951 14.9993 25.0467 13.1752C24.7402 9.54795 23.9994 5.87146 22.1831 2.67671C21.7256 1.90786 21.2196 1.1528 20.5611 0.540544C20.2561 0.26574 19.8888 -0.0113021 19.4578 0.00435845C15.0755 0.00174837 10.6939 0.00547706 6.31156 0.00174837C5.97299 -0.0180137 5.6568 0.13188 5.4025 0.343669C4.73022 0.892906 4.20224 1.59427 3.74995 2.32808C1.80021 5.54333 1.01681 9.31267 0.686825 13.0167C0.58615 14.6824 0.665572 16.3524 0.62642 18.0214C0.598082 19.4588 0.623437 20.8996 0.610387 22.3377C0.589879 23.1211 0.788246 23.9124 1.21183 24.5746C2.10746 25.9878 3.84801 26.6183 5.46477 26.594C3.72496 29.1713 1.75994 31.8959 0.000745684 34.4605L0 34.994L2.67198 34.9922C3.24508 34.2699 3.71564 33.4858 4.26525 32.7479L21.4441 32.7482L23.0426 34.997L25.6534 35L25.6579 34.4847L20.2684 26.594ZM19.9716 23.5089C19.0853 23.3944 18.284 22.6047 18.3109 21.6833C18.2419 20.8056 18.9328 19.9976 19.7677 19.8022C20.8453 19.517 22.0478 20.4309 22.041 21.5502C22.1481 22.6565 21.0582 23.648 19.9716 23.5089ZM2.73574 14.5328C2.68168 13.9448 2.72269 13.3553 2.70144 12.7673C2.6112 10.2508 3.06983 7.71306 4.0639 5.39679C4.56504 4.27222 5.19929 3.18866 6.07106 2.31055C6.45549 1.95111 6.91598 1.56482 7.47789 1.60136C11.082 1.60658 14.6881 1.60509 18.2915 1.60248C18.7151 1.57638 19.0879 1.82508 19.3982 2.08422C20.0827 2.67485 20.6081 3.42581 21.066 4.20137C22.5996 6.9483 23.1522 10.1613 23.047 13.2807C23.0381 13.8658 23.1075 14.4829 22.8356 15.0258C22.547 15.6816 21.8647 16.1723 21.1402 16.1738C15.6374 16.175 10.1331 16.1727 4.63066 16.1738C3.7093 16.188 2.86625 15.4344 2.73574 14.5328ZM18.0584 27.8443L7.44694 27.8454L8.246 26.6239L17.3265 26.619L18.0584 27.8443ZM5.16536 23.4739C4.42037 23.315 3.81445 22.6894 3.68693 21.9395C3.51653 21.0152 4.16309 20.0513 5.06394 19.8171C6.16427 19.4853 7.40444 20.4025 7.41637 21.5502C7.51443 22.7151 6.29776 23.7535 5.16536 23.4739ZM5.38647 31.1923C5.9014 30.3738 6.48121 29.5729 7.01703 28.7701L18.6561 28.7623C19.2389 29.5472 19.7777 30.363 20.3396 31.1624L5.38647 31.1923Z" fill="white"/>
<path d="M17.2523 5.91248L15.3156 5.91658L12.9968 8.65344L10.6395 5.91136L8.67335 5.91061L8.67261 13.2233L10.8241 13.2166L10.8233 8.99312L12.9215 11.4708L15.0371 9.01811L15.0408 13.2237C15.7787 13.2226 16.5264 13.2248 17.265 13.2211L17.2523 5.91248Z" fill="white"/>
</svg>
