<svg width="31" height="15" viewBox="0 0 31 15" fill="none" xmlns="http://www.w3.org/2000/svg">
<path d="M0.359009 3.71719L0.359009 11.21C0.359009 13.1961 2.56817 14.8057 4.55431 14.8057L26.7313 14.8057C28.7168 14.8057 30.3277 13.1961 30.3277 11.21V3.71719C30.3277 1.73168 28.7175 0.120847 26.7313 0.120847L4.55431 0.120847C2.56817 0.122121 0.359009 1.73168 0.359009 3.71719ZM9.39956 0.751036H16.8325L17.0561 2.48995H13.9938L9.39956 0.751036ZM7.22353 1.6635C9.7086 2.31089 12.6461 3.07744 12.6461 3.07744L12.6461 11.8504L7.22353 13.2662C7.22353 13.2656 5.30047 7.60536 7.22353 1.6635ZM14.1945 12.4175H17.0568L16.8344 14.157H9.59964L14.1945 12.4175ZM24.533 14.157L17.9323 14.157L18.1508 12.4175L23.3733 12.4175L24.533 14.157ZM26.4089 13.1649L24.2832 11.7516V2.97676L26.4089 1.56282V13.1649ZM23.1738 2.48995L18.1578 2.48995L17.9316 0.751036L24.3342 0.751036L23.1738 2.48995Z" fill="#FF0000"/>
</svg>
