<svg width="36" height="36" viewBox="0 0 36 36" fill="none" xmlns="http://www.w3.org/2000/svg">
<path d="M22.2042 1.40146H17.9998V4.02918H20.8903V8.97805C20.8903 13.3248 17.3538 16.8613 13.0071 16.8613C8.66034 16.8613 5.1239 13.3248 5.1239 8.97812V4.02918H7.92684V1.40146H3.81004C3.08435 1.40146 2.49619 1.98962 2.49619 2.71532V8.97812C2.49619 14.7741 7.2112 19.4891 13.0071 19.4891C18.8031 19.4891 23.5181 14.7741 23.5181 8.97812V2.71532C23.5181 1.98962 22.9299 1.40146 22.2042 1.40146Z" fill="white"/>
<path d="M27.3282 20.5839V26.8029C27.3282 30.4253 24.3812 33.3723 20.7589 33.3723C17.1365 33.3723 14.1895 30.4253 14.1895 26.8029V18.219H11.5618V26.8029C11.5618 31.874 15.6873 36 20.7589 36C25.8299 36 29.9559 31.874 29.9559 26.8029V20.5839H27.3282Z" fill="white"/>
<path d="M28.6426 12.0876C25.9614 12.0876 23.7808 14.2682 23.7808 16.9489C23.7808 19.6292 25.9614 21.8102 28.6422 21.8102C31.3229 21.8102 33.5035 19.6292 33.5039 16.9489C33.5038 14.2682 31.3229 12.0876 28.6426 12.0876ZM28.6422 19.1825C27.4102 19.1825 26.4081 18.1805 26.4081 16.949C26.4081 15.7174 27.4101 14.7154 28.6422 14.7154C29.8737 14.7154 30.8757 15.7174 30.8757 16.949C30.8757 18.1805 29.8737 19.1825 28.6422 19.1825Z" fill="white"/>
<path d="M7.88304 0C7.15735 0 6.56918 0.588164 6.56918 1.31386V4.1168C6.56918 4.84249 7.15735 5.43066 7.88304 5.43066C8.60873 5.43066 9.1969 4.84249 9.1969 4.1168V1.31386C9.1969 0.588164 8.60873 0 7.88304 0Z" fill="white"/>
<path d="M18.0436 0C17.3179 0 16.7297 0.588164 16.7297 1.31386V4.1168C16.7297 4.84249 17.3179 5.43066 18.0436 5.43066C18.7693 5.43066 19.3574 4.84249 19.3574 4.1168V1.31386C19.3574 0.588164 18.7693 0 18.0436 0Z" fill="white"/>
</svg>
