<svg width="35" height="35" viewBox="0 0 35 35" fill="none" xmlns="http://www.w3.org/2000/svg">
<path d="M33.25 7H25.6667V4.66667C25.6647 3.05652 24.3601 1.75199 22.75 1.75H12.25C10.6399 1.75199 9.33533 3.05652 9.33333 4.66667V7H1.75C0.783569 7 0 7.78357 0 8.75V21.7349C0.0037028 22.4749 0.469971 23.1331 1.16667 23.3818V31.5C1.16667 32.4664 1.95024 33.25 2.91667 33.25H32.0833C33.0498 33.25 33.8333 32.4664 33.8333 31.5V23.3823C34.53 23.1334 34.9966 22.4749 35 21.7349V8.75C35 7.78357 34.2164 7 33.25 7ZM10.5 4.66667C10.5 3.70024 11.2836 2.91667 12.25 2.91667H22.75C23.7164 2.91667 24.5 3.70024 24.5 4.66667V7H23.3333V4.66667C23.3333 4.34452 23.0721 4.08333 22.75 4.08333H12.25C11.9279 4.08333 11.6667 4.34452 11.6667 4.66667V7H10.5V4.66667ZM22.1667 7H12.8333V5.25H22.1667V7ZM32.6667 31.5C32.6667 31.8221 32.4055 32.0833 32.0833 32.0833H2.91667C2.59452 32.0833 2.33333 31.8221 2.33333 31.5V23.5823L15.1667 25.3522V26.8333C15.1667 27.7998 15.9502 28.5833 16.9167 28.5833H18.0833C19.0498 28.5833 19.8333 27.7998 19.8333 26.8333V25.3522L32.6667 23.5823V31.5ZM18.6667 26.8333C18.6667 27.1555 18.4055 27.4167 18.0833 27.4167H16.9167C16.5945 27.4167 16.3333 27.1555 16.3333 26.8333V23.3333C16.3333 23.0112 16.5945 22.75 16.9167 22.75H18.0833C18.4055 22.75 18.6667 23.0112 18.6667 23.3333V26.8333ZM33.8333 21.7349C33.8336 22.0257 33.6197 22.2723 33.3317 22.3131L33.17 22.3353L19.8333 24.1744V23.3333C19.8333 22.3669 19.0498 21.5833 18.0833 21.5833H16.9167C15.9502 21.5833 15.1667 22.3669 15.1667 23.3333V24.1744L1.66882 22.3131C1.38086 22.2726 1.16638 22.026 1.16667 21.7349V8.75C1.16667 8.42786 1.42786 8.16667 1.75 8.16667H33.25C33.5721 8.16667 33.8333 8.42786 33.8333 8.75V21.7349Z" fill="white"/>
</svg>
