<svg width="51" height="51" viewBox="0 0 51 51" fill="none" xmlns="http://www.w3.org/2000/svg">
<path d="M0.192734 32.7234L3.94953 28.7766C4.08154 28.6378 4.26467 28.5599 4.45598 28.5599H6.08976C6.08976 28.5591 6.08964 28.5583 6.08964 28.5575V27.6489C6.08964 27.2049 6.44972 26.8444 6.89378 26.8444C7.33819 26.8444 7.69791 27.2049 7.69791 27.6489V28.5575C7.69791 28.5583 7.6978 28.5591 7.6978 28.5599H18.2568V25.9554L7.12873 14.8274C6.58256 14.2813 6.58256 13.3957 7.12873 12.8495C7.67479 12.3033 8.56041 12.3033 9.10658 12.8495L20.3722 24.1152H22.1727V28.5599H23.678V16.4232C23.678 16.0365 23.9912 15.7235 24.3773 15.7235H25.2639V15.2692C25.2639 14.8251 25.6241 14.4654 26.068 14.4654C26.5124 14.4654 26.8721 14.8251 26.8721 15.2692V15.7235H33.0705C33.2701 15.7235 33.4606 15.8095 33.5932 15.9585L40.2666 23.465H43.9127C43.976 23.4628 44.0387 23.4623 44.1004 23.4623C47.5554 23.4623 48.9336 25.9932 49.1913 27.3694L49.3867 28.0341H50.1474C50.6183 28.0341 51 28.4163 51 28.8868V33.052C51 33.4141 50.7736 33.7231 50.4548 33.8466C50.3685 33.8837 50.275 33.9047 50.1785 33.9047H50.1472H47.9612C47.7694 36.5037 45.5949 38.5602 42.9476 38.5602C40.3004 38.5602 38.1259 36.5037 37.9342 33.9047H14.3829C14.1913 36.5037 12.0168 38.5602 9.36953 38.5602C6.72215 38.5602 4.54766 36.5037 4.35599 33.9047H0.699173C0.419384 33.9047 0.166637 33.7377 0.056572 33.481C-0.0536118 33.2237 0 32.9255 0.192734 32.7234ZM42.9476 36.0549C44.3392 36.0549 45.4712 34.9229 45.4712 33.5316C45.4712 32.1402 44.3392 31.0082 42.9476 31.0082C41.5562 31.0082 40.4243 32.1402 40.4243 33.5316C40.4243 34.9229 41.5562 36.0549 42.9476 36.0549ZM26.8205 22.9964H35.1719L31.0886 18.2412H26.8205V22.9964ZM9.36965 36.0549C10.7611 36.0549 11.893 34.9229 11.893 33.5316C11.893 32.1402 10.761 31.0082 9.36965 31.0082C7.97806 31.0082 6.84598 32.1402 6.84598 33.5316C6.84598 34.9229 7.97806 36.0549 9.36965 36.0549Z" fill="white"/>
</svg>
