<svg width="30" height="35" viewBox="0 0 30 35" fill="none" xmlns="http://www.w3.org/2000/svg">
<path d="M14.7369 0C22.1054 0 29.4738 0.92108 29.4738 7.36838V24.8684C29.4738 28.4236 26.5817 31.3158 23.0264 31.3158L25.7895 34.0789V35H21.6817L17.9974 31.3158H11.0527L7.36853 34.9999H3.68429V34.0788L6.44745 31.3157C2.89222 31.3157 5.81324e-05 28.4236 5.81324e-05 24.8683V7.36838C0.000144481 0.92108 6.59484 0 14.7369 0ZM23.0264 27.6315C24.5553 27.6315 25.7895 26.3974 25.7895 24.8684C25.7895 23.3394 24.5553 22.1052 23.0264 22.1052C21.4974 22.1052 20.2632 23.3394 20.2632 24.8684C20.2632 26.3974 21.4975 27.6315 23.0264 27.6315ZM16.5791 14.7368H25.7895V7.36838H16.579V14.7368H16.5791ZM6.44745 27.6315C7.97642 27.6315 9.2106 26.3974 9.2106 24.8684C9.2106 23.3394 7.97642 22.1052 6.44745 22.1052C4.91847 22.1052 3.68429 23.3394 3.68429 24.8684C3.68429 26.3974 4.91856 27.6315 6.44745 27.6315ZM3.68429 14.7368H12.8948V7.36838H3.68429V14.7368V14.7368Z" fill="white"/>
</svg>
