<svg width="40" height="40" viewBox="0 0 40 40" fill="none" xmlns="http://www.w3.org/2000/svg">
<g clip-path="url(#clip0)">
<path d="M-0.0583344 17.99H13.875V14.99C13.8767 14.4383 14.325 13.9917 14.8783 13.9917H24.9033C25.4617 13.9917 25.9067 14.4383 25.9067 14.9917V24.9917C25.9067 25.5433 25.4583 25.99 24.905 25.9917H14.875C13.2733 25.9867 14.0467 23.525 13.875 21.9917H-0.0566677C1.05167 32.9833 10.88 40.995 21.8967 39.8917C32.915 38.7867 40.9467 28.9817 39.8383 17.9917C38.7867 7.84 30.2583 -0.0083313 19.8933 -0.0083313H19.8917C9.525 -0.0083313 0.994999 7.84 -0.0516677 17.905L-0.0583344 17.99Z" fill="black"/>
</g>
<defs>
<clipPath id="clip0">
<rect width="40" height="40" fill="white"/>
</clipPath>
</defs>
</svg>
