<svg width="18" height="18" viewBox="0 0 18 18" fill="none" xmlns="http://www.w3.org/2000/svg">
<g clip-path="url(#clip0)">
<path d="M15.3626 2.63471C11.8474 -0.87947 6.1489 -0.878626 2.63471 2.63665C-0.87947 6.15192 -0.878626 11.8504 2.63665 15.3646C6.15192 18.8788 11.8504 18.8779 15.3646 15.3626C17.0523 13.6744 18.0002 11.3849 17.9996 8.99771C17.9992 6.61096 17.0506 4.32214 15.3626 2.63471ZM13.6298 12.5365C13.6294 12.5369 13.6291 12.5373 13.6286 12.5377V12.5347L13.1726 12.9877C12.5829 13.5849 11.724 13.8306 10.9076 13.6357C10.0851 13.4156 9.30326 13.0652 8.59162 12.5977C7.93048 12.1752 7.31777 11.6813 6.76462 11.1247C6.25567 10.6195 5.79842 10.0647 5.39961 9.46874C4.96339 8.82742 4.61812 8.12879 4.37361 7.39273C4.09331 6.52802 4.32559 5.57919 4.97362 4.94174L5.50761 4.40775C5.65608 4.25862 5.89732 4.25809 6.04642 4.40655C6.0468 4.40694 6.04723 4.40733 6.04761 4.40775L7.7336 6.09374C7.88273 6.2422 7.88326 6.48344 7.7348 6.63254C7.73441 6.63293 7.73402 6.63332 7.7336 6.63374L6.7436 7.62374C6.45954 7.90471 6.42382 8.35119 6.65961 8.67375C7.01768 9.16516 7.41392 9.62757 7.84462 10.0568C8.32482 10.539 8.84686 10.9777 9.40461 11.3678C9.72689 11.5926 10.1638 11.5547 10.4426 11.2778L11.3996 10.3058C11.5481 10.1566 11.7893 10.1561 11.9384 10.3046C11.9388 10.305 11.9392 10.3054 11.9396 10.3058L13.6286 11.9978C13.7778 12.1462 13.7783 12.3874 13.6298 12.5365Z" fill="#3497F9"/>
</g>
<defs>
<clipPath id="clip0">
<rect width="18" height="18" fill="white"/>
</clipPath>
</defs>
</svg>
